<?xml version="1.0" encoding="UTF-8"?>
<svg id="_레이어_2" data-name="레이어 2" xmlns="http://www.w3.org/2000/svg" viewBox="0 0 99.21 39.69">
  <defs>
    <style>
      .cls-1 {
        fill: #fff;
      }

      .cls-1, .cls-2 {
        stroke-width: 0px;
      }

      .cls-2 {
        fill: #231815;
      }
    </style>
  </defs>
  <g id="Layer_1" data-name="Layer 1">
    <g>
      <rect class="cls-2" width="99.21" height="39.69"/>
      <g>
        <path class="cls-1" d="M46.58,23.89h-1.85c-.37,0-.64-.11-.83-.34-.18-.22-.28-.53-.28-.91v-1.13h20.74v1.13c0,.38-.09.69-.28.91-.18.22-.46.34-.83.34h-13.73v2.66c0,.69.11,1.26.32,1.72.22.45.52.82.91,1.09.39.27.86.46,1.42.58.55.11,1.16.17,1.84.17,1.25,0,2.32-.23,3.22-.7.9-.46,1.49-1.14,1.78-2.04h2.35c.46,0,.61.24.43.72-.29.75-.68,1.4-1.16,1.95-.49.54-1.07,1-1.74,1.37-.67.37-1.42.64-2.24.82-.82.18-1.7.26-2.63.26-1.06,0-2.04-.1-2.94-.29-.9-.19-1.69-.52-2.36-.97-.67-.45-1.2-1.06-1.57-1.81-.38-.75-.56-1.68-.56-2.78v-2.74ZM49.78,13.21h10.97v1.27c0,.42-.1.7-.3.84-.2.14-.51.22-.92.22h-9.74v.62c0,.82.59,1.22,1.78,1.22h10.03v1.27c0,.42-.1.7-.3.84-.2.14-.51.22-.92.22h-9.26c-1.46,0-2.53-.28-3.23-.85-.7-.57-1.04-1.45-1.04-2.65v-6.19c0-.35.08-.6.23-.76.15-.15.41-.23.78-.23h13.39v1.27c0,.42-.1.7-.3.84-.2.14-.51.22-.92.22h-10.22v1.85Z"/>
        <path class="cls-1" d="M70.15,18.4h8.9v-3.12h1.71c.38,0,.69.09.91.28.22.18.34.46.34.83v2.02h8.88v1.13c0,.38-.09.69-.28.91-.18.22-.46.34-.83.34h-18.53c-.37,0-.64-.11-.83-.34-.18-.22-.28-.53-.28-.91v-1.13ZM73.2,17.2c-.26.1-.46.13-.61.11-.15-.02-.29-.13-.4-.32l-.77-1.37c1.07-.5,2.05-1.01,2.94-1.54.89-.53,1.7-1.09,2.42-1.69s1.38-1.24,1.96-1.93c.58-.69,1.09-1.43,1.54-2.23l2.21.77c.37.13.59.32.66.56.07.25,0,.51-.2.78-.21.3-.47.62-.79.96.93.81,1.98,1.56,3.17,2.24,1.18.68,2.5,1.27,3.96,1.76l-.62,1.34c-.1.21-.22.34-.36.38-.14.05-.35.03-.62-.05-2.99-.86-5.51-2.09-7.56-3.67-.96.78-2.01,1.5-3.16,2.14-1.14.64-2.4,1.22-3.76,1.75ZM89.04,29.32c.21,0,.35.07.42.21.07.13.04.28-.08.44-.38.46-.88.87-1.48,1.22-.6.35-1.27.64-2.02.86-.74.22-1.54.39-2.39.5-.85.11-1.71.17-2.59.17-1.12,0-2.16-.07-3.11-.22-.95-.14-1.78-.39-2.47-.73-.7-.35-1.24-.8-1.63-1.36-.39-.56-.59-1.25-.59-2.06v-1.51c0-.22.05-.4.16-.54.1-.14.3-.2.59-.2h10.39c.27,0,.47-.04.6-.11.13-.07.19-.24.19-.49v-.86h-10.7c-.42,0-.72-.07-.92-.22-.2-.14-.3-.42-.3-.84v-1.32h13.37c.56,0,.95.12,1.18.37.22.25.34.69.34,1.33v2.45c0,.87-.23,1.42-.68,1.68-.46.26-1.13.38-2.03.38h-9.22v.02c0,.27.08.52.25.74s.45.42.83.6c.38.18.88.31,1.5.41.62.1,1.37.14,2.27.14,2.54,0,4.25-.36,5.11-1.08h3.02Z"/>
      </g>
      <path class="cls-1" d="M25.45,17.72c-4.12,4.46-4.02,4.9-4.02,5.2-.02.68.33,1,.53,1.14.74.49,1.79.02,3.01-.54.4-.18,1.02-.46,1.4-.56-.38,2.34-2.67,4.75-4.98,6.37-3.28-.99-6.08-3.64-7.08-6.92-.08-.26-.05-.42.19-.59,4.69-3.32,9.75-5.88,15.35-7.29.4-.1.61-.03.83.3,1.93,2.85,1.55,6.61-.95,8.96-.62.58-1.37,1.01-2.1,1.54.34.73.7,1.52,1.09,2.35,1.9-.85,3.38-2.13,4.39-3.88,1.84-3.2,1.85-6.5.27-9.89,1.68-.11,3.28-.23,4.79.64-.44-.52-.88-1.04-1.42-1.43-1.31-.94-2.83-1.1-4.39-1.05-.22,0-.51-.07-.66-.21-2.99-2.86-7.26-3.57-11.02-1.83-.11.05-.22.13-.34.21.4.82.78,1.61,1.17,2.42,2.28-1.1,4.51-1.13,6.73.05-5.14,1.63-9.87,4.08-14.46,7-.06-1.63.2-3.07.76-4.46,1.04-2.6,2.85-4.5,5.36-5.79-.66-1.42-1.3-2.8-1.94-4.19-.12.05-.18.08-.24.11-6.37,3.13-9.79,10.34-8.14,17.24.09.37.04.61-.23.89-.85.9-1.55,1.91-1.95,3.1-.4,1.2-.4,2.39.03,3.68.24-2.14,1.57-3.52,2.89-5.03,1.24,2.69,3.04,4.82,5.36,6.55-2.41.46-4.8,1.03-7.3-.04.8.74,1.67,1.09,2.6,1.3,2.22.49,4.43.25,6.64-.11.18-.03.4-.01.57.06,3.22,1.49,6.54,1.8,9.96.86,1-.27,1.96-.68,2.97-1.04-.71-1.48-1.36-2.84-2.03-4.22-1.85.88-3.72,1.27-5.72,1.09,2.29-1.86,4.3-4.36,4.54-6.92,0-.02,0-.04,0-.07,0-.66-.34-.98-.54-1.11-.75-.48-1.8,0-3.01.54-.29.13-.68.31-1.02.44.49-.62,3.86-4.6,3.86-4.6l-1.75-.27Z"/>
    </g>
  </g>
</svg>