<?xml version="1.0" encoding="UTF-8"?>
<svg id="_레이어_2" data-name="레이어 2" xmlns="http://www.w3.org/2000/svg" viewBox="0 0 99.44 34.25">
  <defs>
    <style>
      .cls-1 {
        fill: none;
        stroke: #231815;
        stroke-miterlimit: 10;
        stroke-width: .23px;
      }

      .cls-2 {
        fill: #231815;
        stroke-width: 0px;
      }
    </style>
  </defs>
  <g id="Layer_1" data-name="Layer 1">
    <g>
      <g>
        <path class="cls-2" d="M37.74,8.47c-.48,0-.72-.23-.72-.7v-.53h7.1v.53c0,.46-.24.7-.72.7h-2.13v7.58c0,.46-.24.7-.72.7h-.78v-8.28h-2.04Z"/>
        <path class="cls-2" d="M51.05,15.54c.09.14.11.29.08.44-.03.15-.12.28-.28.36-.36.19-.71.33-1.07.41-.36.08-.72.12-1.09.12-1.13,0-1.97-.28-2.53-.84-.56-.56-.84-1.47-.84-2.74s.26-2.12.79-2.7c.52-.58,1.32-.87,2.4-.87.54,0,1,.08,1.39.24.39.16.7.38.95.67.25.29.43.63.55,1.03.12.4.18.84.18,1.31v.14c0,.21-.06.37-.19.5-.13.12-.3.18-.51.18h-4.07c0,.34.03.63.1.88.07.25.18.45.34.6.16.15.36.27.62.34.26.07.57.11.94.11.32,0,.64-.04.96-.13.31-.09.66-.25,1.05-.49l.24.43ZM48.51,10.84c-.6,0-1.04.17-1.3.51-.27.34-.4.78-.4,1.32h3.36c0-.26-.03-.51-.09-.73-.06-.22-.15-.42-.28-.58-.13-.16-.3-.29-.51-.38-.21-.09-.47-.14-.77-.14Z"/>
        <path class="cls-2" d="M55.5,14.67c0,.4.1.69.3.86.2.17.5.26.89.26s.72-.06,1.04-.18c.31-.12.63-.3.96-.55v-5.19h.73c.48,0,.72.23.72.7v6.17h-.74c-.22,0-.39-.05-.5-.16-.11-.11-.18-.25-.2-.42-.62.49-1.39.73-2.29.73-.73,0-1.3-.19-1.71-.57-.41-.38-.61-.92-.61-1.63v-4.82h.72c.48,0,.72.23.72.7v4.11Z"/>
        <path class="cls-2" d="M67.55,11.94c0-.4-.1-.69-.3-.86-.2-.17-.5-.25-.89-.25s-.72.06-1.04.18c-.31.12-.63.3-.96.55v5.19h-.73c-.48,0-.72-.23-.72-.7v-6.17h.74c.21,0,.38.05.5.16.12.11.18.25.2.43.32-.25.67-.43,1.05-.55.37-.12.79-.18,1.26-.18.73,0,1.3.19,1.71.57.41.38.61.92.61,1.63v4.82h-.72c-.48,0-.72-.23-.72-.7v-4.11Z"/>
        <path class="cls-2" d="M73.14,15.53c.37.11.79.17,1.24.17.29,0,.55-.03.78-.09.24-.06.44-.15.61-.27.17-.12.3-.28.4-.47.1-.19.14-.41.14-.67,0-.21-.04-.4-.11-.56-.08-.16-.2-.3-.35-.43-.16-.13-.36-.25-.6-.36-.24-.11-.52-.22-.85-.34-.42-.15-.8-.33-1.14-.51-.34-.19-.64-.4-.88-.64-.24-.24-.43-.5-.56-.79-.13-.29-.2-.61-.2-.98,0-.4.08-.75.25-1.05.17-.3.4-.55.69-.76.29-.2.64-.36,1.04-.46.4-.11.84-.16,1.32-.16s.96.07,1.41.22c.45.15.87.36,1.25.62l-.31.56c-.09.16-.22.26-.38.29-.16.03-.33,0-.51-.09-.26-.13-.53-.24-.79-.31-.27-.08-.5-.12-.71-.12-.59,0-1.04.11-1.34.33-.3.22-.45.53-.45.92,0,.22.05.42.15.59.1.17.24.32.42.46.18.14.4.27.65.39.25.12.54.24.86.35.42.16.8.33,1.12.52.32.18.6.38.82.61.22.23.39.48.51.77.12.29.17.61.17.96s-.07.71-.21,1.03c-.14.32-.36.61-.64.84-.29.24-.64.43-1.07.57-.42.14-.92.21-1.47.21-.48,0-.93-.05-1.34-.14-.42-.09-.8-.24-1.15-.44-.16-.1-.26-.23-.29-.39-.03-.16,0-.31.09-.47l.3-.49c.39.26.77.45,1.14.56Z"/>
        <path class="cls-2" d="M83.37,16.9c-.48,0-.93-.08-1.34-.24-.42-.16-.78-.39-1.09-.69-.31-.3-.56-.67-.74-1.11-.18-.44-.27-.94-.27-1.5s.09-1.11.27-1.56.42-.83.73-1.13c.31-.31.67-.54,1.09-.7.42-.16.88-.24,1.36-.24s.95.08,1.37.24c.42.16.78.39,1.09.7.31.3.55.68.72,1.13.17.45.26.97.26,1.56s-.09,1.06-.27,1.5c-.18.44-.43.81-.74,1.11-.31.3-.68.53-1.1.69-.42.16-.87.24-1.34.24ZM83.37,10.82c-.34,0-.63.07-.88.21-.25.14-.45.32-.61.56-.16.23-.28.5-.36.8-.08.3-.12.62-.12.97,0,.39.05.74.15,1.05.1.31.24.56.41.77.17.21.38.37.63.47s.5.16.78.16.55-.05.79-.16.45-.27.62-.47c.17-.21.31-.46.41-.77.1-.3.15-.65.15-1.05,0-.34-.04-.66-.12-.97-.08-.31-.2-.58-.36-.8-.16-.23-.37-.42-.62-.56-.25-.14-.55-.21-.89-.21Z"/>
        <path class="cls-2" d="M90.16,6.85c.24,0,.42.06.54.18.12.12.18.29.18.52v9.2h-.73c-.48,0-.72-.23-.72-.7V6.85h.73Z"/>
      </g>
      <rect class="cls-1" x=".12" y=".12" width="99.21" height="34.02"/>
      <path class="cls-2" d="M22.24,15.43c-3.28,3.56-3.2,3.91-3.21,4.15,0,.54.26.8.42.91.59.39,1.43.01,2.41-.43.32-.14.81-.37,1.12-.45-.3,1.87-2.13,3.79-3.97,5.09-2.62-.79-4.85-2.91-5.65-5.52-.06-.21-.04-.34.15-.47,3.74-2.65,7.78-4.69,12.25-5.82.32-.08.48-.02.66.24,1.54,2.27,1.24,5.27-.76,7.15-.49.46-1.1.81-1.68,1.22.27.58.56,1.21.87,1.87,1.52-.68,2.7-1.7,3.5-3.1,1.47-2.55,1.48-5.18.21-7.89,1.34-.09,2.62-.18,3.82.51-.35-.42-.7-.83-1.13-1.14-1.04-.75-2.26-.88-3.51-.84-.18,0-.41-.05-.53-.17-2.39-2.28-5.8-2.85-8.8-1.46-.09.04-.17.11-.27.17.32.66.62,1.29.94,1.93,1.82-.87,3.6-.9,5.37.04-4.1,1.3-7.87,3.25-11.54,5.59-.05-1.3.16-2.45.61-3.56.83-2.07,2.28-3.59,4.28-4.62-.53-1.13-1.04-2.23-1.55-3.34-.1.05-.14.07-.19.09-5.09,2.5-7.81,8.25-6.49,13.76.07.29.03.49-.18.71-.68.72-1.24,1.53-1.56,2.47-.32.96-.32,1.91.03,2.93.19-1.71,1.25-2.81,2.3-4.01.99,2.15,2.42,3.85,4.28,5.23-1.92.37-3.83.82-5.83-.03.64.6,1.33.87,2.08,1.04,1.77.39,3.53.2,5.29-.09.15-.03.32,0,.45.05,2.57,1.19,5.22,1.43,7.95.68.79-.22,1.56-.54,2.37-.83-.57-1.18-1.09-2.27-1.62-3.37-1.47.71-2.97,1.01-4.56.87,1.83-1.48,3.43-3.48,3.62-5.53,0-.02,0-.04,0-.05,0-.53-.27-.78-.43-.89-.6-.38-1.43,0-2.4.43-.23.11-.54.25-.81.35.39-.5,3.08-3.67,3.08-3.67l-1.4-.22Z"/>
      <g>
        <path class="cls-2" d="M39,21.46h-.57v4.93c0,.32.19.51.52.51h.56v-4.93c0-.16-.04-.28-.13-.37-.09-.09-.22-.14-.39-.14Z"/>
        <path class="cls-2" d="M43.4,22.82c-.27,0-.51.04-.72.11-.16.05-.31.12-.46.21-.02-.04-.05-.08-.09-.12-.09-.08-.21-.12-.36-.12h-.54v3.49c0,.32.19.51.52.51h.53v-2.89c.15-.11.29-.19.44-.24.15-.06.33-.09.52-.09s.32.04.4.11c.08.07.12.19.12.37v2.24c0,.32.19.51.52.51h.52v-2.76c0-.42-.13-.75-.38-.98-.25-.23-.59-.35-1.02-.35Z"/>
        <path class="cls-2" d="M47.61,22.45c0-.16-.04-.28-.13-.37-.09-.09-.22-.14-.39-.14h-.55v.96h-.62v.36c0,.32.19.51.52.51h.11v1.89c0,.22.02.42.07.58.05.17.13.31.25.43.11.12.25.21.42.27.16.06.36.11.58.13.03,0,.06,0,.09,0,.1,0,.19-.02.26-.06.1-.06.17-.17.2-.33l.08-.42h-.14c-.16-.03-.29-.05-.4-.08-.09-.03-.16-.06-.21-.11-.05-.04-.07-.09-.09-.15-.02-.07-.03-.16-.03-.26v-1.89h.37c.33,0,.52-.19.52-.51v-.36h-.88v-.45Z"/>
        <path class="cls-2" d="M52.92,23.36c-.15-.17-.34-.3-.57-.4-.22-.09-.5-.14-.81-.14-.62,0-1.09.17-1.4.52-.31.34-.46.86-.46,1.56s.17,1.26.5,1.58c.33.33.82.5,1.47.5.21,0,.42-.02.63-.07.21-.05.41-.13.62-.24.12-.06.19-.16.22-.28.02-.12,0-.23-.06-.33l-.2-.35-.12.07c-.2.12-.38.21-.54.25-.35.09-.73.08-.96.01-.12-.04-.21-.08-.28-.15-.07-.07-.12-.16-.15-.27-.03-.09-.04-.2-.05-.31h2.08c.15,0,.28-.04.37-.14.09-.09.14-.22.14-.37v-.08c0-.27-.04-.52-.1-.75-.07-.23-.18-.44-.33-.61ZM50.94,23.91c.12-.15.32-.23.61-.23.15,0,.27.02.37.06.09.04.17.1.23.17.06.07.1.16.13.27.02.07.03.15.04.23h-1.56c.02-.2.08-.37.18-.51Z"/>
        <path class="cls-2" d="M56.94,22.85c-.12-.02-.22-.03-.29-.03-.22,0-.42.03-.58.1-.11.04-.21.11-.31.18-.02-.03-.05-.06-.08-.09-.09-.07-.2-.11-.35-.11h-.54v3.49c0,.32.19.51.52.51h.53v-2.49c0-.47.24-.68.75-.68.04,0,.08,0,.1,0,.03,0,.06,0,.1.02.14.03.25,0,.33-.06.08-.06.14-.15.17-.26l.1-.47-.11-.04c-.1-.04-.21-.06-.33-.08Z"/>
        <path class="cls-2" d="M60.64,22.82c-.27,0-.51.04-.72.11-.16.05-.31.12-.46.21-.02-.04-.05-.08-.09-.12-.09-.08-.21-.12-.36-.12h-.54v3.49c0,.32.19.51.52.51h.53v-2.89c.15-.11.29-.19.44-.24.15-.06.33-.09.52-.09s.32.04.4.11c.08.07.12.19.12.37v2.24c0,.32.19.51.52.51h.52v-2.76c0-.42-.13-.75-.38-.98-.25-.23-.59-.35-1.02-.35Z"/>
        <path class="cls-2" d="M65.13,22.82c-.31,0-.59.04-.86.13-.26.09-.48.2-.66.33l-.09.07.18.34c.06.12.16.2.27.23.11.03.24.02.37-.05.13-.07.26-.12.38-.14.12-.03.23-.04.32-.04.6,0,.67.28.67.52v.11c-.09-.01-.17-.02-.26-.03-.14-.01-.29-.02-.44-.02-.54,0-.96.12-1.23.36-.28.24-.43.58-.43,1,0,.46.13.8.38,1.03.25.22.6.33,1.06.33.25,0,.48-.04.66-.11.12-.05.23-.11.33-.18.07.11.2.21.45.21h.54v-2.55c0-.49-.13-.88-.4-1.14-.27-.26-.68-.4-1.24-.4ZM65.71,25.13v.59c-.08.13-.18.23-.3.3-.27.15-.65.15-.84,0-.09-.07-.13-.19-.13-.37s.05-.31.14-.41c.1-.1.25-.15.44-.16h.09c.09,0,.2,0,.31.01.11,0,.2.02.29.03Z"/>
        <path class="cls-2" d="M69.51,22.45c0-.16-.04-.28-.13-.37-.09-.09-.22-.14-.39-.14h-.55v.96h-.62v.36c0,.32.19.51.52.51h.11v1.89c0,.22.02.42.07.58.05.17.14.32.25.43.11.12.25.21.42.27.16.06.36.11.58.13.03,0,.06,0,.09,0,.1,0,.19-.02.26-.06.1-.06.17-.17.2-.33l.08-.42h-.14c-.16-.03-.29-.05-.4-.08-.09-.03-.16-.06-.21-.11-.05-.04-.08-.09-.09-.15-.02-.07-.03-.16-.03-.26v-1.89h.37c.33,0,.52-.19.52-.51v-.36h-.88v-.45Z"/>
        <path class="cls-2" d="M72.83,21.48c-.06-.05-.13-.1-.21-.13-.26-.11-.53-.05-.72.13-.13.12-.19.27-.19.45s.07.32.19.45c.13.12.29.19.47.19.09,0,.17-.02.25-.05.08-.03.15-.08.21-.14.06-.06.11-.13.14-.2.04-.08.05-.16.05-.25s-.02-.17-.05-.24c-.03-.08-.08-.14-.15-.2Z"/>
        <path class="cls-2" d="M72.37,22.9h-.53v3.5c0,.32.19.51.52.51h.53v-3.5c0-.16-.04-.28-.14-.38-.09-.09-.22-.13-.39-.13Z"/>
        <path class="cls-2" d="M77.84,23.36c-.18-.18-.4-.31-.64-.41-.49-.18-1.09-.18-1.58,0-.25.09-.46.23-.64.41-.18.18-.32.4-.43.66-.1.26-.15.56-.15.9s.05.62.16.87c.1.25.25.47.43.65.19.18.4.31.64.4.24.09.5.14.78.14s.53-.05.77-.14c.24-.09.46-.23.65-.4.18-.18.33-.4.43-.65.1-.26.16-.55.16-.87s-.05-.63-.15-.9c-.1-.26-.24-.49-.43-.66ZM77.35,24.92c0,.2-.03.38-.08.53-.05.15-.12.27-.2.38-.08.1-.18.17-.29.22-.23.1-.52.1-.75,0-.11-.05-.21-.12-.29-.22-.09-.1-.15-.23-.2-.38-.05-.15-.08-.33-.08-.53,0-.17.02-.34.06-.49.04-.15.1-.28.18-.39.08-.11.17-.2.29-.26.12-.07.25-.1.41-.1s.3.03.42.1c.12.07.21.15.29.26.08.11.14.24.18.39.04.15.06.32.06.49Z"/>
        <path class="cls-2" d="M82.01,22.82c-.27,0-.51.04-.72.11-.16.05-.31.12-.46.21-.02-.04-.05-.08-.09-.12-.09-.08-.21-.12-.36-.12h-.54v3.49c0,.32.19.51.52.51h.53v-2.89c.15-.11.29-.19.44-.24.16-.06.32-.09.52-.09.18,0,.32.04.4.11.08.07.12.19.12.37v2.24c0,.32.19.51.52.51h.52v-2.76c0-.42-.13-.75-.38-.98-.25-.23-.59-.35-1.02-.35Z"/>
        <path class="cls-2" d="M86.5,22.82c-.3,0-.59.04-.86.13-.26.09-.48.2-.66.33l-.09.07.18.34c.06.12.16.2.27.23.11.03.24.02.37-.05.13-.07.26-.12.38-.14.12-.03.23-.04.32-.04.6,0,.68.28.68.52v.11c-.09-.01-.17-.02-.26-.03-.14-.01-.29-.02-.44-.02-.54,0-.96.12-1.23.36-.28.24-.43.58-.43,1,0,.46.13.8.38,1.03.25.22.6.33,1.06.33.25,0,.48-.04.66-.11.12-.05.23-.11.33-.18.07.11.2.21.45.21h.54v-2.55c0-.49-.13-.88-.4-1.14-.27-.26-.68-.4-1.24-.4ZM87.08,25.13v.59c-.08.13-.18.23-.3.3-.13.07-.28.11-.45.11s-.3-.04-.39-.12c-.09-.07-.13-.19-.13-.37s.05-.31.14-.41c.1-.1.25-.15.44-.16h.09c.09,0,.2,0,.31.01.11,0,.2.02.29.03Z"/>
        <path class="cls-2" d="M90.74,21.39c-.09-.09-.22-.14-.39-.14h-.53v5.14c0,.32.19.51.52.51h.53v-5.14c0-.16-.05-.28-.14-.37Z"/>
      </g>
    </g>
  </g>
</svg>