<?xml version="1.0" encoding="UTF-8"?>
<svg id="_레이어_2" data-name="레이어 2" xmlns="http://www.w3.org/2000/svg" xmlns:xlink="http://www.w3.org/1999/xlink" viewBox="0 0 141.73 37.38">
  <defs>
    <style>
      .cls-1 {
        fill: #cf9c00;
        stroke-width: 0px;
      }
    </style>
    <symbol id="MainSimbol" viewBox="0 0 141.73 37.38">
      <g>
        <path class="cls-1" d="M23.52,15.98c-5.27,5.72-5.15,6.29-5.15,6.66-.01.87.42,1.29.68,1.46.95.63,2.3.02,3.86-.69.51-.23,1.3-.58,1.79-.72-.49,3-3.42,6.09-6.39,8.17-4.21-1.27-7.79-4.67-9.07-8.86-.1-.34-.06-.54.25-.76,6.01-4.26,12.49-7.54,19.67-9.35.51-.13.78-.04,1.06.39,2.47,3.65,1.99,8.47-1.22,11.48-.8.74-1.76,1.29-2.69,1.97.43.93.91,1.95,1.4,3.01,2.43-1.1,4.33-2.73,5.62-4.98,2.36-4.1,2.38-8.33.34-12.67,2.16-.14,4.21-.29,6.14.82-.57-.67-1.13-1.34-1.82-1.83-1.68-1.21-3.63-1.4-5.63-1.35-.28,0-.65-.09-.85-.27-3.84-3.66-9.31-4.58-14.13-2.35-.15.07-.28.17-.44.27.51,1.06,1,2.06,1.5,3.09,2.92-1.4,5.78-1.45,8.63.07-6.59,2.09-12.64,5.23-18.54,8.98-.08-2.08.26-3.94.97-5.72,1.34-3.32,3.66-5.77,6.87-7.43-.84-1.82-1.67-3.59-2.49-5.37-.15.07-.23.1-.31.14C5.44,4.15,1.07,13.39,3.18,22.25c.11.47.05.78-.29,1.14-1.09,1.16-1.99,2.45-2.5,3.98-.52,1.54-.51,3.07.04,4.71.3-2.74,2.01-4.52,3.7-6.44,1.59,3.45,3.89,6.18,6.87,8.4-3.09.58-6.16,1.32-9.36-.04,1.03.95,2.14,1.4,3.34,1.66,2.84.62,5.67.33,8.5-.14.24-.04.52-.02.73.08,4.12,1.9,8.39,2.3,12.77,1.09,1.28-.35,2.51-.88,3.8-1.33-.91-1.9-1.75-3.65-2.59-5.41-2.37,1.13-4.78,1.62-7.33,1.39,2.93-2.38,5.51-5.58,5.81-8.87,0-.03,0-.06,0-.09,0-.85-.44-1.25-.69-1.42-.96-.62-2.3,0-3.86.7-.37.17-.87.39-1.3.56.63-.8,4.95-5.89,4.95-5.89l-2.24-.35Z"/>
        <g>
          <g>
            <path class="cls-1" d="M63.07,28.14h-.73v6.34c0,.42.24.66.67.66h.72v-6.34c0-.2-.06-.36-.17-.48-.11-.12-.28-.18-.5-.18Z"/>
            <path class="cls-1" d="M68.73,29.89c-.34,0-.65.05-.93.13-.21.07-.4.16-.59.28-.03-.06-.07-.11-.12-.15-.11-.1-.27-.15-.46-.15h-.69v4.49c0,.42.25.66.67.66h.68v-3.72c.19-.14.38-.24.56-.31.39-.15.96-.16,1.18.02.1.09.15.24.15.47v2.88c0,.42.24.66.67.66h.67v-3.54c0-.54-.16-.96-.48-1.26-.32-.3-.76-.45-1.32-.45Z"/>
            <path class="cls-1" d="M74.14,29.41c0-.2-.06-.36-.17-.48-.11-.12-.28-.18-.5-.18h-.7v1.23h-.8v.46c0,.42.24.66.67.66h.14v2.43c0,.29.03.54.1.75.07.22.17.4.32.55.14.14.32.26.54.35.21.08.46.14.74.16.04,0,.08,0,.12,0,.13,0,.24-.03.33-.08.13-.08.21-.22.25-.42l.1-.54-.18-.02c-.21-.02-.38-.05-.51-.09-.11-.03-.2-.09-.27-.14-.06-.05-.09-.12-.12-.2-.03-.09-.04-.21-.04-.34v-2.43h.47c.42,0,.66-.24.66-.66v-.46h-1.13v-.58Z"/>
            <path class="cls-1" d="M80.97,30.59c-.19-.22-.44-.39-.73-.51-.29-.12-.64-.19-1.04-.19-.8,0-1.41.22-1.8.66-.39.44-.59,1.11-.59,2s.21,1.62.64,2.04c.42.42,1.06.64,1.89.64.27,0,.54-.03.81-.09.27-.06.53-.16.79-.3.15-.09.25-.21.28-.37.03-.15,0-.29-.07-.42l-.26-.46-.15.09c-.25.16-.49.27-.69.33-.44.12-.93.1-1.23,0-.15-.04-.27-.11-.37-.2-.09-.09-.15-.2-.19-.35-.03-.12-.05-.25-.06-.4h2.67c.2,0,.36-.06.48-.18.12-.12.18-.28.18-.47v-.1c0-.35-.05-.67-.13-.96-.09-.3-.23-.57-.42-.79ZM78.42,31.29c.15-.19.41-.29.78-.29.19,0,.35.02.47.08.12.06.22.13.3.22.08.1.13.21.17.35.02.09.04.19.04.3h-2c.02-.26.1-.48.24-.65Z"/>
            <path class="cls-1" d="M86.14,29.92c-.15-.02-.28-.04-.38-.04-.29,0-.54.04-.75.13-.14.06-.27.13-.39.24-.03-.05-.07-.09-.11-.12-.11-.09-.26-.14-.45-.14h-.69v4.49c0,.42.24.66.67.66h.68v-3.2c0-.61.3-.88.96-.88.05,0,.1,0,.13,0,.04,0,.08,0,.13.02.18.03.32,0,.43-.07.11-.08.18-.19.21-.33l.13-.6-.14-.05c-.13-.05-.28-.08-.43-.1Z"/>
            <path class="cls-1" d="M90.89,29.89c-.34,0-.65.05-.93.13-.2.07-.4.16-.59.28-.03-.06-.07-.11-.12-.15-.11-.1-.27-.15-.46-.15h-.69v4.49c0,.42.25.66.67.66h.68v-3.72c.19-.14.38-.24.56-.31.39-.15.96-.16,1.18.02.1.09.15.24.15.47v2.88c0,.42.24.66.67.66h.67v-3.54c0-.54-.16-.96-.48-1.26-.32-.3-.76-.45-1.32-.45Z"/>
            <path class="cls-1" d="M96.66,29.89c-.39,0-.77.06-1.1.17-.34.12-.62.26-.85.42l-.12.09.23.44c.08.16.2.26.35.3.15.04.31.02.47-.07.17-.09.34-.15.49-.19.16-.04.3-.05.41-.05.77,0,.87.36.87.67v.15c-.11-.01-.23-.03-.34-.04-.18-.02-.37-.03-.56-.03-.7,0-1.24.16-1.59.46-.36.31-.54.74-.54,1.29,0,.59.16,1.03.49,1.32.32.28.78.42,1.36.42.33,0,.61-.05.85-.14.16-.06.29-.14.42-.23.09.15.26.27.58.27h.69v-3.28c0-.63-.17-1.13-.51-1.47-.34-.34-.88-.51-1.59-.51ZM97.41,32.85v.75c-.1.18-.23.3-.39.39-.34.19-.83.19-1.09,0-.11-.09-.17-.24-.17-.47s.06-.4.19-.52c.13-.12.32-.19.57-.2h.12c.12,0,.25,0,.39.02.14,0,.26.03.38.04Z"/>
            <path class="cls-1" d="M102.3,29.41c0-.2-.06-.36-.17-.47-.11-.12-.28-.18-.49-.18h-.7v1.23h-.8v.46c0,.42.24.66.66.66h.14v2.43c0,.29.03.54.1.75.07.22.17.4.32.55.14.14.32.26.54.35.21.08.46.14.74.16.04,0,.08,0,.12,0,.13,0,.24-.03.33-.08.13-.08.21-.22.25-.42l.1-.54-.18-.02c-.21-.02-.38-.05-.51-.09-.12-.03-.21-.09-.27-.14-.06-.05-.1-.12-.12-.2-.02-.09-.04-.21-.04-.34v-2.43h.47c.42,0,.66-.24.66-.66v-.46h-1.13v-.58Z"/>
            <path class="cls-1" d="M105.98,29.99h-.68v4.5c0,.42.24.66.67.66h.68v-4.5c0-.21-.06-.37-.17-.48-.12-.12-.28-.18-.5-.18Z"/>
            <path class="cls-1" d="M106.57,28.16c-.08-.07-.17-.13-.27-.17-.32-.13-.69-.06-.92.17-.17.16-.25.35-.25.57s.08.41.25.58c.16.16.37.24.6.24.11,0,.23-.02.33-.06.1-.04.19-.1.27-.18.08-.08.14-.16.18-.26.04-.1.07-.21.07-.32s-.02-.21-.07-.31c-.04-.1-.1-.19-.19-.26Z"/>
            <path class="cls-1" d="M113.01,30.59c-.23-.23-.51-.4-.82-.52-.62-.23-1.41-.23-2.04,0-.32.12-.59.29-.82.52-.24.23-.42.52-.55.86-.13.33-.2.72-.2,1.15s.07.79.2,1.12c.13.33.32.61.56.84.23.22.51.4.82.52.31.12.65.18,1,.18s.69-.06.99-.18c.32-.12.6-.29.83-.52.24-.23.42-.51.56-.84.14-.33.2-.7.2-1.12s-.07-.82-.2-1.15c-.13-.34-.31-.63-.54-.86ZM112.39,32.6c0,.26-.03.49-.1.68-.06.19-.15.36-.25.49-.11.13-.23.22-.38.29-.29.13-.66.13-.97,0-.15-.07-.27-.16-.38-.29-.11-.13-.19-.29-.26-.49-.07-.2-.1-.43-.1-.68,0-.22.03-.44.07-.63.05-.2.13-.37.23-.51.1-.14.23-.26.37-.34.15-.08.33-.12.54-.12s.39.04.54.12c.15.08.28.2.38.34.1.14.18.32.23.51.05.19.08.41.08.63Z"/>
            <path class="cls-1" d="M118.37,29.89c-.34,0-.65.05-.93.13-.21.07-.4.16-.59.28-.03-.06-.07-.11-.12-.15-.11-.1-.27-.16-.46-.16h-.69v4.49c0,.42.24.66.67.66h.68v-3.72c.19-.14.38-.24.56-.31.2-.08.42-.12.67-.12s.41.05.51.14c.1.09.15.25.15.47v2.88c0,.42.25.66.67.66h.67v-3.54c0-.54-.16-.96-.48-1.26-.32-.3-.76-.45-1.32-.45Z"/>
            <path class="cls-1" d="M124.14,29.89c-.39,0-.77.06-1.11.17-.33.12-.62.26-.85.42l-.12.09.23.44c.08.16.2.26.35.3.15.04.31.01.47-.07.17-.09.33-.15.49-.19.16-.04.3-.05.41-.05.77,0,.87.36.87.67v.15c-.11-.01-.23-.03-.34-.04-.18-.02-.37-.03-.56-.03-.7,0-1.23.16-1.59.46-.36.31-.54.74-.54,1.29,0,.59.16,1.03.49,1.32.32.28.78.42,1.36.42.33,0,.61-.04.86-.14.15-.06.29-.14.42-.23.09.15.26.27.58.27h.69v-3.28c0-.63-.17-1.13-.51-1.47-.35-.34-.88-.51-1.59-.51ZM124.89,32.85v.75c-.1.17-.23.3-.39.39-.34.19-.84.19-1.09,0-.11-.09-.17-.25-.17-.47s.06-.4.19-.52c.13-.12.32-.19.57-.2h.12c.12,0,.25,0,.4.02.13,0,.26.03.38.04Z"/>
            <path class="cls-1" d="M129.1,27.87h-.68v6.61c0,.42.25.66.67.66h.68v-6.61c0-.2-.06-.37-.18-.48-.11-.12-.28-.18-.49-.18Z"/>
          </g>
          <g>
            <path class="cls-1" d="M44.8,6.72c0,.91.51,1.4,1.44,1.4h3.16v13.85h1.54c.93,0,1.45-.5,1.45-1.4v-12.44h3.32c.93,0,1.44-.49,1.44-1.4v-1.13h-12.36v1.13Z"/>
            <path class="cls-1" d="M69.36,21.26c.32-.18.52-.44.59-.77.06-.32.01-.62-.16-.9l-.53-.93-.21.13c-.62.38-1.2.65-1.69.79-1.07.3-2.28.25-3.03.04-.39-.11-.7-.28-.94-.51-.23-.23-.4-.53-.51-.9-.09-.33-.15-.72-.16-1.16h6.55c.43,0,.77-.13,1.03-.38.26-.25.39-.59.39-1.01v-.23c0-.81-.1-1.56-.31-2.26-.21-.7-.54-1.31-.97-1.81-.44-.51-1-.9-1.67-1.19-.67-.28-1.49-.43-2.42-.43-1.86,0-3.27.51-4.19,1.53-.92,1.01-1.38,2.58-1.38,4.67s.5,3.77,1.47,4.75c.98.98,2.46,1.47,4.4,1.47.64,0,1.27-.07,1.88-.21.62-.14,1.24-.38,1.85-.71ZM65.32,12.09c.47,0,.87.07,1.19.21.32.14.58.33.77.57.19.24.34.54.42.87.08.29.12.59.13.92h-5.12c.03-.73.24-1.34.61-1.82.4-.5,1.07-.76,1.99-.76Z"/>
            <path class="cls-1" d="M83.26,21.15c.07.19.18.35.32.48.23.21.57.33,1.01.33h1.48v-10.56c0-.91-.51-1.41-1.44-1.41h-1.46v8.8c-.48.36-.97.63-1.44.81-.5.19-1.05.28-1.65.28s-1.04-.12-1.34-.37c-.28-.23-.42-.65-.42-1.25v-6.87c0-.91-.51-1.41-1.44-1.41h-1.44v8.3c0,1.24.37,2.21,1.1,2.9.73.68,1.75,1.02,3.03,1.02,1.42,0,2.66-.35,3.69-1.06Z"/>
            <path class="cls-1" d="M97.81,9.75c-.8,0-1.53.1-2.18.31-.54.17-1.04.42-1.52.74-.07-.19-.18-.35-.32-.48-.24-.22-.58-.32-1-.32h-1.48v10.56c0,.91.51,1.4,1.44,1.4h1.46v-8.8c.49-.36.97-.64,1.44-.81.49-.19,1.05-.28,1.64-.28s1.05.13,1.34.37c.28.23.42.65.42,1.25v6.87c0,.91.51,1.4,1.44,1.4h1.44v-8.3c0-1.24-.37-2.22-1.1-2.9-.73-.68-1.74-1.02-3.03-1.02Z"/>
            <path class="cls-1" d="M116.51,14.48c-.39-.39-.87-.75-1.43-1.07-.55-.31-1.19-.6-1.92-.88-.52-.19-1-.39-1.41-.58-.41-.19-.76-.4-1.05-.62-.28-.21-.5-.45-.64-.7-.14-.25-.22-.54-.22-.87,0-.58.21-1.02.66-1.34.46-.34,1.16-.51,2.1-.51.32,0,.7.06,1.12.18.43.12.86.29,1.28.51.34.18.69.24,1.01.18.34-.06.61-.27.8-.6l.63-1.12-.18-.12c-.65-.46-1.37-.83-2.15-1.08-1.53-.5-3.31-.47-4.7-.11-.7.18-1.31.45-1.82.81-.52.36-.93.82-1.23,1.35-.3.54-.45,1.17-.45,1.88,0,.64.12,1.22.35,1.74.23.51.56.98.99,1.39.42.41.93.78,1.52,1.1.59.32,1.24.62,1.94.88.52.19.99.38,1.39.56.38.18.7.37.95.57.23.19.41.4.52.63.11.23.17.51.17.83,0,.39-.07.73-.21,1-.14.29-.34.51-.6.7-.25.18-.57.33-.93.41-.37.09-.79.14-1.25.14-.74,0-1.41-.09-2.01-.27-.6-.18-1.22-.49-1.84-.91l-.21-.14-.64,1.03c-.18.31-.24.64-.17.96.07.33.27.6.61.81.6.35,1.27.6,1.99.76.71.16,1.48.24,2.3.24.95,0,1.8-.12,2.53-.36.73-.24,1.36-.57,1.86-.99.5-.43.89-.93,1.14-1.5.25-.57.38-1.18.38-1.82s-.1-1.2-.31-1.7c-.2-.5-.51-.96-.9-1.37Z"/>
            <path class="cls-1" d="M132.17,11.38c-.54-.53-1.19-.94-1.91-1.22-1.45-.54-3.28-.55-4.74,0-.73.28-1.37.68-1.91,1.22-.54.53-.97,1.2-1.27,1.98-.31.78-.46,1.69-.46,2.69s.16,1.85.48,2.61c.32.76.75,1.42,1.29,1.94.54.52,1.19.93,1.91,1.21.72.28,1.51.41,2.33.41s1.59-.14,2.32-.41c.73-.28,1.38-.68,1.93-1.21.54-.52.98-1.18,1.29-1.94.31-.76.47-1.64.47-2.61s-.15-1.91-.45-2.69c-.3-.78-.72-1.45-1.26-1.98ZM127.88,12.06c.52,0,.98.11,1.37.32.38.21.7.5.95.86.25.36.44.79.57,1.26.12.49.19,1.02.19,1.56,0,.63-.08,1.19-.24,1.67-.16.48-.38.89-.65,1.21-.26.32-.59.56-.96.73-.74.33-1.68.33-2.44,0-.37-.16-.69-.41-.96-.73-.27-.33-.49-.73-.64-1.21-.16-.49-.24-1.05-.24-1.68,0-.54.06-1.07.18-1.56.12-.48.31-.9.56-1.26.25-.35.57-.64.95-.86.37-.21.83-.32,1.35-.32Z"/>
            <path class="cls-1" d="M141.36,5.32c-.25-.25-.61-.37-1.07-.37h-1.46v15.62c0,.91.52,1.4,1.44,1.4h1.46V6.35c0-.44-.12-.79-.37-1.03Z"/>
          </g>
        </g>
      </g>
    </symbol>
  </defs>
  <g id="Layer_1" data-name="Layer 1">
    <use width="141.73" height="37.38" xlink:href="#MainSimbol"/>
  </g>
</svg>