<?xml version="1.0" encoding="UTF-8"?>
<svg id="_레이어_2" data-name="레이어 2" xmlns="http://www.w3.org/2000/svg" viewBox="0 0 156.69 127.41">
  <defs>
    <style>
      .cls-1 {
        fill: #cf9c00;
        stroke-width: 0px;
      }
    </style>
  </defs>
  <g id="Layer_1" data-name="Layer 1">
    <g>
      <path class="cls-1" d="M84.76,28.43c-9.38,10.17-9.16,11.18-9.16,11.85-.03,1.54.74,2.29,1.21,2.6,1.68,1.12,4.09.03,6.87-1.22.92-.41,2.32-1.04,3.19-1.29-.87,5.34-6.08,10.83-11.36,14.54-7.48-2.26-13.87-8.31-16.15-15.78-.19-.6-.1-.97.45-1.35,10.7-7.57,22.22-13.41,35-16.64.91-.23,1.39-.06,1.9.7,4.39,6.49,3.54,15.07-2.17,20.43-1.41,1.32-3.14,2.3-4.79,3.5.78,1.66,1.62,3.46,2.49,5.35,4.33-1.95,7.71-4.86,10.01-8.86,4.2-7.3,4.23-14.81.61-22.55,3.84-.25,7.49-.52,10.93,1.45-1.01-1.19-2.01-2.38-3.23-3.26-2.99-2.15-6.45-2.5-10.02-2.4-.51.02-1.16-.15-1.51-.48-6.82-6.52-16.57-8.15-25.14-4.18-.26.13-.5.3-.77.48.91,1.88,1.79,3.67,2.68,5.5,5.19-2.49,10.28-2.58,15.35.13-11.72,3.72-22.49,9.3-32.98,15.97-.14-3.71.46-7,1.73-10.17,2.39-5.92,6.51-10.26,12.22-13.21-1.5-3.24-2.96-6.39-4.44-9.55-.27.12-.41.19-.55.25-14.53,7.13-22.31,23.58-18.56,39.34.2.84.1,1.39-.51,2.04-1.95,2.06-3.54,4.36-4.46,7.07-.92,2.74-.91,5.46.07,8.39.54-4.87,3.58-8.03,6.58-11.46,2.84,6.14,6.93,10.99,12.23,14.95-5.5,1.04-10.96,2.35-16.65-.08,1.83,1.7,3.81,2.49,5.94,2.96,5.06,1.11,10.1.58,15.13-.25.42-.07.92-.03,1.3.14,7.34,3.39,14.92,4.1,22.72,1.95,2.27-.63,4.46-1.56,6.76-2.37-1.62-3.38-3.11-6.48-4.62-9.63-4.21,2.02-8.5,2.89-13.04,2.48,5.21-4.23,9.81-9.94,10.34-15.78,0-.06,0-.11,0-.15,0-1.51-.78-2.23-1.23-2.53-1.71-1.1-4.1-.02-6.87,1.23-.65.3-1.54.7-2.32.99,1.11-1.42,8.81-10.49,8.81-10.49l-3.99-.62Z"/>
      <g>
        <g>
          <path class="cls-1" d="M31.69,116.68h-1.08v9.43c0,.62.36.98,1,.98h1.07v-9.43c0-.3-.08-.54-.25-.71-.17-.17-.42-.26-.74-.26Z"/>
          <path class="cls-1" d="M40.11,119.27c-.51,0-.97.07-1.39.2-.31.1-.6.23-.87.41-.05-.08-.1-.16-.18-.22-.17-.15-.4-.23-.69-.23h-1.02v6.68c0,.62.36.98,1,.98h1.01v-5.53c.28-.2.56-.36.83-.46.58-.22,1.43-.24,1.76.04.15.13.23.36.23.7v4.28c0,.62.36.98,1,.98h1v-5.27c0-.8-.24-1.43-.72-1.88-.47-.44-1.13-.67-1.96-.67Z"/>
          <path class="cls-1" d="M48.15,118.56c0-.3-.08-.54-.25-.71-.17-.17-.42-.26-.74-.26h-1.05v1.83h-1.19v.68c0,.62.36.98.99.98h.21v3.62c0,.43.05.8.14,1.11.1.33.26.6.47.82.21.22.48.39.8.52.31.12.68.2,1.1.25.06,0,.12,0,.17,0,.19,0,.36-.04.5-.12.19-.12.32-.33.37-.62l.15-.8-.27-.03c-.31-.03-.57-.08-.76-.13-.17-.05-.31-.12-.4-.21-.09-.08-.14-.18-.18-.29-.04-.14-.06-.3-.06-.5v-3.62h.7c.63,0,.99-.36.99-.98v-.68h-1.69v-.86Z"/>
          <path class="cls-1" d="M58.31,120.31c-.28-.33-.65-.58-1.08-.77-.43-.18-.95-.27-1.54-.27-1.19,0-2.09.33-2.68.99-.59.65-.89,1.65-.89,2.98s.32,2.4.95,3.03c.63.63,1.58.95,2.81.95.4,0,.8-.04,1.2-.13.39-.09.79-.24,1.18-.45.22-.12.37-.31.41-.54.05-.22,0-.44-.11-.63l-.38-.67-.22.14c-.38.23-.72.4-1.03.48-.65.18-1.38.15-1.83.02-.23-.06-.41-.16-.54-.29-.13-.13-.23-.3-.29-.52-.05-.17-.08-.37-.09-.6h3.98c.29,0,.53-.09.71-.26.18-.18.28-.41.28-.7v-.14c0-.51-.07-.99-.2-1.44-.14-.45-.34-.84-.62-1.17ZM54.52,121.37c.23-.29.61-.43,1.16-.43.28,0,.51.04.7.12.18.08.33.19.44.32.11.14.2.31.25.51.04.14.06.29.07.44h-2.98c.03-.39.15-.71.35-.97Z"/>
          <path class="cls-1" d="M66,119.32c-.22-.03-.41-.05-.56-.05-.43,0-.8.07-1.12.19-.21.08-.41.2-.59.35-.04-.07-.1-.13-.16-.18-.17-.14-.39-.21-.67-.21h-1.02v6.68c0,.62.36.98,1,.98h1.01v-4.76c0-.9.44-1.3,1.43-1.3.07,0,.14,0,.2,0,.06,0,.12.01.19.03.27.05.48,0,.64-.11.16-.11.27-.28.31-.5l.19-.89-.21-.07c-.2-.07-.42-.12-.64-.15Z"/>
          <path class="cls-1" d="M73.07,119.27c-.51,0-.97.07-1.39.2-.3.1-.6.24-.87.41-.05-.08-.11-.16-.18-.22-.17-.15-.4-.23-.69-.23h-1.02v6.68c0,.62.36.98,1,.98h1.01v-5.53c.28-.2.56-.36.83-.46.3-.11.63-.17.99-.17s.61.07.77.21c.15.13.22.36.22.7v4.28c0,.62.36.98,1,.98h1v-5.27c0-.8-.24-1.43-.72-1.88-.47-.44-1.13-.67-1.96-.67Z"/>
          <path class="cls-1" d="M81.66,119.27c-.59,0-1.14.09-1.64.25-.5.17-.93.38-1.27.63l-.18.13.34.65c.12.23.3.38.52.45.22.06.45.03.7-.1.25-.13.5-.23.73-.28.24-.05.44-.08.61-.08,1.15,0,1.29.54,1.29,1v.22c-.17-.02-.33-.04-.5-.06-.27-.02-.55-.04-.84-.04-1.04,0-1.83.23-2.36.68-.54.46-.81,1.11-.81,1.92,0,.88.25,1.54.73,1.96.48.42,1.16.63,2.02.63.49,0,.91-.07,1.27-.21.23-.09.44-.21.63-.35.13.21.38.4.86.4h1.02v-4.87c0-.94-.26-1.68-.77-2.18-.51-.5-1.31-.76-2.37-.76ZM82.77,123.68v1.12c-.15.26-.34.45-.58.58-.51.28-1.25.29-1.62-.01-.17-.13-.25-.36-.25-.7s.09-.6.28-.78c.19-.18.47-.28.84-.3h.17c.18,0,.38,0,.59.02.2.02.39.04.56.06Z"/>
          <path class="cls-1" d="M90.04,118.56c0-.3-.08-.54-.25-.71-.17-.18-.42-.26-.74-.26h-1.05v1.83h-1.19v.68c0,.62.36.98.99.98h.21v3.62c0,.42.05.8.14,1.11.1.33.26.6.47.82.21.22.48.39.8.52.31.12.68.2,1.1.25.06,0,.12,0,.17,0,.19,0,.36-.04.49-.12.2-.12.32-.33.37-.62l.15-.8-.27-.03c-.31-.03-.57-.08-.76-.13-.17-.05-.31-.12-.4-.21-.09-.08-.14-.18-.18-.29-.04-.14-.06-.31-.06-.5v-3.62h.7c.63,0,.99-.36.99-.98v-.68h-1.69v-.86Z"/>
          <path class="cls-1" d="M96.39,116.7c-.11-.1-.25-.19-.4-.25-.47-.2-1.02-.09-1.38.25-.25.24-.37.52-.37.85s.12.61.37.85c.24.24.54.36.89.36.17,0,.33-.03.49-.1.15-.06.29-.15.4-.26.12-.11.21-.24.27-.39.07-.15.1-.31.1-.47s-.03-.32-.1-.47c-.07-.15-.16-.28-.28-.38Z"/>
          <path class="cls-1" d="M95.51,119.42h-1.01v6.69c0,.62.36.98,1,.98h1.01v-6.69c0-.3-.09-.54-.26-.71-.17-.17-.42-.26-.74-.26Z"/>
          <path class="cls-1" d="M105.97,120.32c-.35-.34-.76-.6-1.23-.78-.93-.35-2.09-.35-3.02,0-.47.18-.88.44-1.23.78-.35.34-.62.77-.82,1.27-.2.5-.29,1.08-.29,1.71s.1,1.18.3,1.66c.2.49.48.91.83,1.24.35.34.76.6,1.23.77.46.18.96.26,1.49.26s1.02-.09,1.48-.26c.47-.17.88-.43,1.23-.77.35-.34.63-.76.83-1.24.2-.49.3-1.05.3-1.66s-.1-1.22-.29-1.71c-.19-.5-.47-.93-.81-1.27ZM105.04,123.3c0,.38-.05.72-.15,1.01-.09.28-.22.53-.38.72-.16.19-.34.33-.56.43-.44.19-.98.2-1.44,0-.22-.1-.41-.24-.56-.43-.16-.19-.29-.43-.38-.72-.1-.29-.14-.63-.14-1.01,0-.33.04-.65.11-.95.07-.29.19-.54.34-.76.15-.21.33-.38.56-.5.22-.12.48-.18.79-.18s.58.06.8.19c.23.13.41.29.56.5.15.22.27.47.34.76.07.29.11.61.11.95Z"/>
          <path class="cls-1" d="M113.94,119.27c-.51,0-.97.07-1.39.2-.3.1-.6.23-.87.41-.05-.08-.11-.16-.18-.22-.17-.15-.4-.23-.69-.23h-1.02v6.68c0,.62.36.98,1,.98h1.01v-5.53c.28-.2.56-.36.83-.46.58-.22,1.43-.24,1.76.03.15.13.23.36.23.7v4.28c0,.62.36.98,1,.98h1v-5.27c0-.8-.24-1.43-.72-1.88-.47-.44-1.13-.67-1.96-.67Z"/>
          <path class="cls-1" d="M122.53,119.27c-.59,0-1.14.09-1.64.25-.5.17-.92.38-1.27.63l-.18.13.34.65c.12.23.3.38.52.45.22.06.45.03.7-.1.25-.13.5-.23.73-.28.24-.05.45-.08.61-.08,1.14,0,1.29.54,1.29,1v.22c-.17-.02-.33-.04-.5-.06-.27-.02-.55-.04-.84-.04-1.04,0-1.83.23-2.36.68-.54.46-.81,1.11-.81,1.92,0,.88.25,1.54.73,1.96.48.42,1.16.63,2.02.63.49,0,.91-.07,1.27-.21.23-.09.44-.21.63-.35.13.21.39.4.86.4h1.02v-4.87c0-.94-.26-1.68-.77-2.18-.51-.5-1.31-.76-2.37-.76ZM123.64,123.68v1.12c-.15.26-.34.45-.57.58-.51.28-1.25.28-1.62-.01-.17-.13-.25-.37-.25-.7s.09-.6.28-.78c.19-.19.47-.28.84-.3h.17c.18,0,.38,0,.59.02.2.02.39.04.56.06Z"/>
          <path class="cls-1" d="M130.64,116.54c-.17-.17-.42-.26-.74-.26h-1.01v9.83c0,.62.36.98,1,.98h1.01v-9.83c0-.3-.09-.54-.26-.71Z"/>
        </g>
        <g>
          <path class="cls-1" d="M0,82.74c0,1.46.83,2.27,2.33,2.27h5.12v22.38h2.49c1.5,0,2.33-.81,2.33-2.27v-20.11h5.37c1.5,0,2.33-.81,2.33-2.27v-1.83H0v1.83Z"/>
          <path class="cls-1" d="M39.78,90.25c-.71-.81-1.62-1.46-2.71-1.92-1.09-.46-2.4-.69-3.91-.69-3,0-5.28.83-6.77,2.48-1.48,1.63-2.23,4.17-2.23,7.56s.8,6.1,2.39,7.68c1.58,1.58,3.97,2.38,7.11,2.38,1.03,0,2.05-.11,3.04-.34,1-.22,2-.61,3-1.15.52-.29.84-.7.95-1.24.1-.51.01-1.01-.26-1.46l-.86-1.51-.35.21c-1.01.62-1.93,1.06-2.73,1.29-1.74.49-3.69.41-4.9.06-.63-.18-1.13-.46-1.51-.83-.37-.36-.65-.85-.82-1.45-.15-.54-.24-1.17-.26-1.88h10.59c.69,0,1.25-.21,1.66-.61.42-.41.64-.96.64-1.63v-.38c0-1.3-.17-2.53-.5-3.65-.34-1.13-.86-2.12-1.57-2.93ZM29.95,92.66c.64-.81,1.72-1.23,3.21-1.23.75,0,1.4.12,1.92.34.51.22.93.53,1.24.92.32.39.55.87.69,1.42.12.46.19.96.21,1.48h-8.28c.06-1.19.39-2.17.99-2.94Z"/>
          <path class="cls-1" d="M64.37,88.02h-2.36v14.22c-.79.58-1.57,1.03-2.33,1.32-.8.3-1.69.46-2.66.46s-1.69-.2-2.16-.6c-.45-.38-.67-1.06-.67-2.02v-11.11c0-1.46-.83-2.27-2.33-2.27h-2.33v13.41c0,2,.6,3.58,1.78,4.68,1.17,1.1,2.82,1.65,4.9,1.65,2.3,0,4.3-.57,5.96-1.71.12.3.29.56.52.77.38.35.92.53,1.63.53h2.39v-17.07c0-1.46-.83-2.27-2.33-2.27Z"/>
          <path class="cls-1" d="M85.68,87.64c-1.29,0-2.47.17-3.51.5-.87.28-1.69.68-2.46,1.2-.11-.3-.29-.56-.52-.77-.39-.35-.93-.52-1.61-.52h-2.39v17.07c0,1.46.83,2.27,2.33,2.27h2.36v-14.22c.79-.58,1.57-1.03,2.33-1.32.8-.3,1.69-.46,2.66-.46s1.69.2,2.16.59c.45.38.68,1.06.68,2.02v11.11c0,1.46.83,2.27,2.33,2.27h2.33v-13.41c0-2-.6-3.58-1.78-4.68-1.17-1.1-2.82-1.65-4.9-1.65Z"/>
          <path class="cls-1" d="M115.92,95.29c-.63-.64-1.41-1.22-2.31-1.73-.89-.5-1.93-.97-3.09-1.42-.84-.31-1.61-.62-2.29-.94-.66-.31-1.23-.65-1.7-1-.45-.34-.8-.73-1.04-1.14-.23-.4-.35-.87-.35-1.4,0-.94.35-1.65,1.06-2.17.74-.54,1.89-.82,3.4-.82.52,0,1.13.1,1.81.3.69.2,1.39.47,2.07.82.56.29,1.11.39,1.63.29.55-.1.99-.43,1.3-.97l1.02-1.81-.29-.2c-1.05-.75-2.22-1.34-3.47-1.74-2.48-.81-5.35-.76-7.59-.18-1.12.29-2.11.73-2.94,1.31-.84.59-1.51,1.32-1.98,2.18-.48.87-.72,1.89-.72,3.04,0,1.03.19,1.98.57,2.81.37.82.91,1.58,1.6,2.25.68.66,1.5,1.26,2.46,1.78.95.52,2,1,3.14,1.42.85.3,1.6.61,2.25.91.61.29,1.13.6,1.53.92.38.31.67.65.85,1.02.18.37.27.83.27,1.35,0,.63-.12,1.17-.35,1.62-.24.46-.55.83-.96,1.13-.42.3-.92.53-1.51.67-.6.15-1.28.22-2.02.22-1.19,0-2.28-.15-3.25-.44-.97-.29-1.97-.78-2.98-1.47l-.34-.23-1.03,1.67c-.3.5-.4,1.03-.28,1.55.12.53.44.97.98,1.3.97.56,2.05.98,3.21,1.23,1.15.25,2.4.38,3.71.38,1.54,0,2.92-.2,4.1-.58,1.19-.39,2.2-.93,3.01-1.61.82-.69,1.44-1.5,1.84-2.43.41-.92.61-1.91.61-2.94s-.17-1.93-.5-2.74c-.33-.82-.82-1.56-1.46-2.21Z"/>
          <path class="cls-1" d="M141.24,90.27c-.87-.86-1.91-1.52-3.09-1.97-2.34-.88-5.29-.89-7.66,0-1.18.45-2.22,1.11-3.1,1.97-.87.86-1.56,1.94-2.06,3.2-.5,1.26-.75,2.73-.75,4.35s.26,2.99.77,4.22c.51,1.24,1.22,2.29,2.09,3.14s1.92,1.5,3.09,1.95c1.16.44,2.43.67,3.77.67s2.58-.22,3.75-.67c1.18-.45,2.23-1.1,3.11-1.95.88-.85,1.58-1.9,2.09-3.14.51-1.24.77-2.66.77-4.22s-.25-3.09-.73-4.35c-.48-1.27-1.17-2.34-2.05-3.21ZM134.29,91.36c.85,0,1.59.17,2.2.51.62.34,1.14.81,1.54,1.39.41.58.71,1.27.91,2.05.2.79.3,1.64.3,2.52,0,1.02-.13,1.93-.39,2.71-.26.78-.61,1.43-1.04,1.95-.43.51-.95.91-1.55,1.18-1.19.53-2.72.54-3.94,0-.6-.27-1.12-.66-1.55-1.18-.44-.52-.79-1.18-1.04-1.95-.26-.78-.39-1.7-.39-2.71,0-.88.1-1.73.3-2.52.2-.77.5-1.46.91-2.05.4-.57.92-1.04,1.53-1.39.61-.34,1.34-.51,2.19-.51Z"/>
          <path class="cls-1" d="M156.09,80.48c-.4-.4-.98-.6-1.73-.6h-2.36v25.24c0,1.46.83,2.27,2.33,2.27h2.36v-25.24c0-.71-.2-1.27-.6-1.67Z"/>
        </g>
      </g>
    </g>
  </g>
</svg>