<?xml version="1.0" encoding="UTF-8"?>
<svg id="_레이어_2" data-name="레이어 2" xmlns="http://www.w3.org/2000/svg" viewBox="0 0 99.21 34.02">
  <defs>
    <style>
      .cls-1 {
        fill: none;
      }

      .cls-1, .cls-2 {
        stroke-width: 0px;
      }

      .cls-2 {
        fill: #fff;
      }
    </style>
  </defs>
  <g id="Layer_1" data-name="Layer 1">
    <g>
      <path class="cls-2" d="M47.78,13.61h-1c-.2,0-.35-.06-.45-.18-.1-.12-.15-.29-.15-.49v-.61h11.23v.61c0,.21-.05.37-.15.49-.1.12-.25.18-.45.18h-7.44v1.44c0,.37.06.68.18.93.12.25.28.45.49.59.21.15.47.25.77.31.3.06.63.09.99.09.68,0,1.26-.13,1.74-.38.49-.25.81-.62.96-1.11h1.27c.25,0,.33.13.23.39-.16.41-.37.76-.63,1.05-.26.29-.58.54-.94.74-.37.2-.77.35-1.22.44-.45.1-.92.14-1.42.14-.57,0-1.1-.05-1.59-.16-.49-.11-.92-.28-1.28-.53-.37-.25-.65-.57-.85-.98-.2-.41-.31-.91-.31-1.51v-1.48ZM49.51,7.83h5.94v.69c0,.22-.05.38-.16.46-.11.08-.28.12-.5.12h-5.28v.34c0,.44.32.66.96.66h5.43v.69c0,.22-.05.38-.16.46-.11.08-.28.12-.5.12h-5.02c-.79,0-1.37-.15-1.75-.46-.38-.31-.56-.79-.56-1.44v-3.35c0-.19.04-.33.12-.41s.22-.12.42-.12h7.25v.69c0,.23-.05.38-.16.45-.11.08-.28.12-.5.12h-5.54v1Z"/>
      <path class="cls-2" d="M68.93,10.63h4.82v-1.69h.92c.21,0,.37.05.49.15.12.1.18.25.18.45v1.09h4.81v.61c0,.21-.05.37-.15.49s-.25.18-.45.18h-10.04c-.2,0-.35-.06-.45-.18s-.15-.29-.15-.49v-.61ZM70.58,9.99c-.14.05-.25.07-.33.06-.08-.01-.15-.07-.21-.18l-.42-.74c.58-.27,1.11-.54,1.59-.83.48-.29.92-.59,1.31-.92.39-.32.75-.67,1.06-1.05.31-.37.59-.78.83-1.21l1.2.42c.2.07.32.17.36.31.04.13,0,.28-.11.42-.11.16-.26.34-.43.52.5.44,1.08.85,1.72,1.22.64.37,1.36.69,2.14.95l-.34.73c-.05.11-.12.18-.2.21s-.19.02-.34-.03c-1.62-.47-2.98-1.13-4.09-1.99-.52.43-1.09.81-1.71,1.16-.62.35-1.3.66-2.03.95ZM79.16,16.55c.11,0,.19.04.23.11.04.07.02.15-.04.24-.21.25-.47.47-.8.66-.33.19-.69.35-1.09.47-.4.12-.83.21-1.29.27-.46.06-.93.09-1.4.09-.61,0-1.17-.04-1.68-.12-.52-.08-.96-.21-1.34-.4-.38-.19-.67-.43-.88-.73-.21-.3-.32-.68-.32-1.12v-.82c0-.12.03-.22.08-.29.06-.07.16-.11.32-.11h5.63c.15,0,.25-.02.32-.06.07-.04.1-.13.1-.27v-.47h-5.8c-.23,0-.39-.04-.5-.12-.11-.08-.16-.23-.16-.46v-.71h7.24c.3,0,.51.07.64.2.12.13.18.38.18.72v1.33c0,.47-.12.77-.37.91-.25.14-.61.21-1.1.21h-4.99c0,.16.04.3.14.42.09.12.24.23.45.32.21.1.48.17.81.22.33.05.74.08,1.23.08,1.38,0,2.3-.19,2.77-.58h1.64Z"/>
    </g>
    <rect class="cls-1" width="99.21" height="34.02"/>
    <path class="cls-2" d="M22.12,15.32c-3.28,3.56-3.2,3.91-3.21,4.15,0,.54.26.8.43.91.59.39,1.43.01,2.4-.43.32-.15.81-.37,1.12-.45-.3,1.87-2.13,3.79-3.97,5.09-2.62-.79-4.85-2.91-5.65-5.52-.06-.21-.04-.34.15-.47,3.74-2.65,7.78-4.69,12.25-5.82.32-.08.48-.02.66.24,1.54,2.27,1.24,5.27-.76,7.15-.49.46-1.1.81-1.68,1.22.27.58.56,1.21.87,1.87,1.52-.68,2.7-1.7,3.5-3.1,1.47-2.55,1.48-5.18.21-7.89,1.34-.09,2.62-.18,3.82.51-.35-.42-.7-.83-1.13-1.14-1.04-.75-2.26-.88-3.51-.84-.18,0-.41-.05-.53-.17-2.39-2.28-5.8-2.85-8.8-1.46-.09.04-.17.11-.27.17.32.66.62,1.28.94,1.93,1.81-.87,3.6-.9,5.37.04-4.1,1.3-7.87,3.26-11.54,5.59-.05-1.3.16-2.45.61-3.56.83-2.07,2.28-3.59,4.28-4.62-.53-1.13-1.04-2.23-1.55-3.34-.1.05-.14.07-.19.09-5.09,2.5-7.81,8.25-6.49,13.76.07.29.03.49-.18.71-.68.72-1.24,1.53-1.56,2.47-.32.96-.32,1.91.03,2.93.19-1.71,1.25-2.81,2.3-4.01.99,2.15,2.42,3.85,4.28,5.23-1.92.36-3.83.82-5.83-.03.64.59,1.33.87,2.08,1.04,1.77.39,3.53.2,5.29-.09.15-.02.32,0,.45.05,2.57,1.19,5.22,1.43,7.95.68.79-.22,1.56-.54,2.37-.83-.57-1.18-1.09-2.27-1.62-3.37-1.47.71-2.97,1.01-4.56.87,1.83-1.48,3.44-3.48,3.62-5.52,0-.02,0-.04,0-.05,0-.53-.27-.78-.43-.89-.6-.38-1.44,0-2.4.43-.23.11-.54.24-.81.35.39-.5,3.08-3.67,3.08-3.67l-1.4-.21Z"/>
    <g>
      <path class="cls-2" d="M37.52,21.35h-.57v4.93c0,.32.19.51.52.51h.56v-4.93c0-.16-.04-.28-.13-.37-.09-.09-.22-.14-.39-.14Z"/>
      <path class="cls-2" d="M41.92,22.7c-.27,0-.51.04-.72.11-.16.05-.31.12-.46.21-.02-.04-.05-.08-.09-.12-.09-.08-.21-.12-.36-.12h-.54v3.49c0,.32.19.51.52.51h.53v-2.89c.15-.11.29-.19.44-.24.15-.06.33-.09.52-.09s.32.04.4.11c.08.07.12.19.12.37v2.24c0,.32.19.51.52.51h.52v-2.76c0-.42-.13-.75-.38-.98-.25-.23-.59-.35-1.02-.35Z"/>
      <path class="cls-2" d="M46.13,22.33c0-.16-.04-.28-.13-.37-.09-.09-.22-.14-.39-.14h-.55v.96h-.62v.36c0,.32.19.51.52.51h.11v1.89c0,.22.02.42.07.58.05.17.13.31.25.43.11.12.25.21.42.27.16.06.36.11.58.13.03,0,.06,0,.09,0,.1,0,.19-.02.26-.06.1-.06.17-.17.2-.33l.08-.42h-.14c-.16-.03-.29-.05-.4-.08-.09-.03-.16-.06-.21-.11-.05-.04-.07-.09-.09-.15-.02-.07-.03-.16-.03-.26v-1.89h.37c.33,0,.52-.19.52-.51v-.36h-.88v-.45Z"/>
      <path class="cls-2" d="M51.44,23.25c-.15-.17-.34-.3-.57-.4-.22-.09-.5-.14-.81-.14-.62,0-1.09.17-1.4.52-.31.34-.46.86-.46,1.56s.17,1.26.5,1.58c.33.33.82.5,1.47.5.21,0,.42-.02.63-.07.21-.05.41-.13.62-.24.12-.06.19-.16.22-.28.02-.12,0-.23-.06-.33l-.2-.35-.12.07c-.2.12-.38.21-.54.25-.35.09-.73.08-.96.01-.12-.04-.21-.08-.28-.15-.07-.07-.12-.16-.15-.27-.03-.09-.04-.2-.05-.31h2.08c.15,0,.28-.04.37-.14.09-.09.14-.22.14-.37v-.08c0-.27-.04-.52-.1-.75-.07-.23-.18-.44-.33-.61ZM49.46,23.8c.12-.15.32-.23.61-.23.15,0,.27.02.37.06.09.04.17.1.23.17.06.07.1.16.13.27.02.07.03.15.04.23h-1.56c.02-.2.08-.37.18-.51Z"/>
      <path class="cls-2" d="M55.46,22.73c-.12-.02-.22-.03-.29-.03-.22,0-.42.03-.58.1-.11.04-.21.11-.31.18-.02-.03-.05-.06-.08-.09-.09-.07-.2-.11-.35-.11h-.54v3.49c0,.32.19.51.52.51h.53v-2.49c0-.47.24-.68.75-.68.04,0,.08,0,.1,0,.03,0,.06,0,.1.02.14.03.25,0,.33-.06.08-.06.14-.15.17-.26l.1-.47-.11-.04c-.1-.04-.21-.06-.33-.08Z"/>
      <path class="cls-2" d="M59.15,22.7c-.27,0-.51.04-.72.11-.16.05-.31.12-.46.21-.02-.04-.05-.08-.09-.12-.09-.08-.21-.12-.36-.12h-.54v3.49c0,.32.19.51.52.51h.53v-2.89c.15-.11.29-.19.44-.24.15-.06.33-.09.52-.09s.32.04.4.11c.08.07.12.19.12.37v2.24c0,.32.19.51.52.51h.52v-2.76c0-.42-.13-.75-.38-.98-.25-.23-.59-.35-1.02-.35Z"/>
      <path class="cls-2" d="M63.64,22.7c-.31,0-.59.04-.86.13-.26.09-.48.2-.66.33l-.09.07.18.34c.06.12.16.2.27.23.11.03.24.02.37-.05.13-.07.26-.12.38-.14.12-.03.23-.04.32-.04.6,0,.67.28.67.52v.11c-.09-.01-.17-.02-.26-.03-.14-.01-.29-.02-.44-.02-.54,0-.96.12-1.23.36-.28.24-.43.58-.43,1,0,.46.13.8.38,1.03.25.22.6.33,1.06.33.25,0,.48-.04.66-.11.12-.05.23-.11.33-.18.07.11.2.21.45.21h.54v-2.55c0-.49-.13-.88-.4-1.14-.27-.26-.68-.4-1.24-.4ZM64.23,25.01v.59c-.08.13-.18.23-.3.3-.27.15-.65.15-.84,0-.09-.07-.13-.19-.13-.37s.05-.31.14-.41c.1-.1.25-.15.44-.16h.09c.09,0,.2,0,.31.01.11,0,.2.02.29.03Z"/>
      <path class="cls-2" d="M68.03,22.33c0-.16-.04-.28-.13-.37-.09-.09-.22-.14-.39-.14h-.55v.96h-.62v.36c0,.32.19.51.52.51h.11v1.89c0,.22.02.42.07.58.05.17.14.32.25.43.11.12.25.21.42.27.16.06.36.11.58.13.03,0,.06,0,.09,0,.1,0,.19-.02.26-.06.1-.06.17-.17.2-.33l.08-.42h-.14c-.16-.03-.29-.05-.4-.08-.09-.03-.16-.06-.21-.11-.05-.04-.08-.09-.09-.15-.02-.07-.03-.16-.03-.26v-1.89h.37c.33,0,.52-.19.52-.51v-.36h-.88v-.45Z"/>
      <path class="cls-2" d="M71.35,21.36c-.06-.05-.13-.1-.21-.13-.26-.11-.53-.05-.72.13-.13.12-.19.27-.19.45s.07.32.19.45c.13.12.29.19.47.19.09,0,.17-.02.25-.05.08-.03.15-.08.21-.14.06-.06.11-.13.14-.2.04-.08.05-.16.05-.25s-.02-.17-.05-.24c-.03-.08-.08-.14-.15-.2Z"/>
      <path class="cls-2" d="M70.89,22.78h-.53v3.5c0,.32.19.51.52.51h.53v-3.5c0-.16-.04-.28-.14-.38-.09-.09-.22-.13-.39-.13Z"/>
      <path class="cls-2" d="M76.36,23.25c-.18-.18-.4-.31-.64-.41-.49-.18-1.09-.18-1.58,0-.25.09-.46.23-.64.41-.18.18-.32.4-.43.66-.1.26-.15.56-.15.9s.05.62.16.87c.1.25.25.47.43.65.19.18.4.31.64.4.24.09.5.14.78.14s.53-.05.77-.14c.24-.09.46-.23.65-.4.18-.18.33-.4.43-.65.1-.26.16-.55.16-.87s-.05-.63-.15-.9c-.1-.26-.24-.49-.43-.66ZM75.87,24.81c0,.2-.03.38-.08.53-.05.15-.12.27-.2.38-.08.1-.18.17-.29.22-.23.1-.52.1-.75,0-.11-.05-.21-.12-.29-.22-.09-.1-.15-.23-.2-.38-.05-.15-.08-.33-.08-.53,0-.17.02-.34.06-.49.04-.15.1-.28.18-.39.08-.11.17-.2.29-.26.12-.07.25-.1.42-.1s.3.03.42.1c.12.07.21.15.29.26.08.11.14.24.18.39.04.15.06.32.06.49Z"/>
      <path class="cls-2" d="M80.53,22.7c-.27,0-.51.04-.72.11-.16.05-.31.12-.46.21-.02-.04-.05-.08-.09-.12-.09-.08-.21-.12-.36-.12h-.54v3.49c0,.32.19.51.52.51h.53v-2.89c.15-.11.29-.19.44-.24.16-.06.32-.09.52-.09.18,0,.32.04.4.11.08.07.12.19.12.37v2.24c0,.32.19.51.52.51h.52v-2.76c0-.42-.13-.75-.38-.98-.25-.23-.59-.35-1.02-.35Z"/>
      <path class="cls-2" d="M85.02,22.7c-.3,0-.59.04-.86.13-.26.09-.48.2-.66.33l-.09.07.18.34c.06.12.16.2.27.23.11.03.24.02.37-.05.13-.07.26-.12.38-.14.12-.03.23-.04.32-.04.6,0,.68.28.68.52v.11c-.09-.01-.17-.02-.26-.03-.14-.01-.29-.02-.44-.02-.54,0-.96.12-1.23.36-.28.24-.43.58-.43,1,0,.46.13.8.38,1.03.25.22.6.33,1.06.33.25,0,.48-.04.66-.11.12-.05.23-.11.33-.18.07.11.2.21.45.21h.54v-2.55c0-.49-.13-.88-.4-1.14-.27-.26-.68-.4-1.24-.4ZM85.6,25.01v.59c-.08.13-.18.23-.3.3-.13.07-.28.11-.45.11s-.3-.04-.39-.12c-.09-.07-.13-.19-.13-.37s.05-.31.14-.41c.1-.1.25-.15.44-.16h.09c.09,0,.2,0,.31.01.11,0,.2.02.29.03Z"/>
      <path class="cls-2" d="M89.26,21.28c-.09-.09-.22-.14-.39-.14h-.53v5.14c0,.32.19.51.52.51h.53v-5.14c0-.16-.05-.28-.14-.37Z"/>
    </g>
  </g>
</svg>